<?xml version="1.0" encoding="utf-8"?>
<!-- Generator: Adobe Illustrator 23.1.0, SVG Export Plug-In . SVG Version: 6.00 Build 0)  -->
<svg version="1.0" id="Layer_1" xmlns="http://www.w3.org/2000/svg" xmlns:xlink="http://www.w3.org/1999/xlink"  width="50" height="50" viewBox="-10 -10 50 50" enable-background="new 0 0 19.9 38.7" xml:space="preserve">

   <g id="rotating-group" transform="rotate(angle, 9.934, 19.333)">
<g id="Group_10767" transform="matrix(1, 0, 0, 1, 0, 0)">
	<g id="Group_1418" transform="translate(0 0)">
		<g id="Group_1417">
			<path id="Path_2194" fill="#CCA70D" d="M18.6,6.2c0-1.2-0.4-2.3-1.1-3.3c-0.2,0.1-0.5,0-0.7-0.1l-2-1.5c-0.2-0.2-0.3-0.4-0.4-0.6
				c-0.1,0-0.2-0.1-0.3-0.1v1.9H5.8V0.6c-0.1,0-0.2,0.1-0.3,0.1c0,0.3-0.2,0.5-0.4,0.7l-2,1.5C2.9,2.9,2.6,2.9,2.4,2.9
				c-0.6,1-1,2.1-1,3.3c-0.5,4.5,0.4,11.6,0.3,13.4c-0.1,9.3-0.2,15,0.4,17c0.2,0.4,0.4,0.7,0.8,0.9c0.1,0,0.2-0.1,0.3-0.1
				c0.7,0,1.1,0.5,1.9,0.3c0.5-0.1,0.7,0.3,0.8,0.7c0.5,0.1,0.9,0.1,1.4,0.2c0.1-0.1,0.2-0.2,0.3-0.2h4.7c0.1,0,0.3,0.1,0.3,0.2
				c0.3,0,0.7-0.1,1-0.1c0.1-0.3,0.2-0.8,0.8-0.7c0.8,0.1,1.2-0.3,1.9-0.3c0.2,0,0.3,0.1,0.5,0.2c0.5-0.2,0.8-0.6,1-1
				c0.6-2,0.5-7.6,0.4-17C18.2,17.8,19.1,10.7,18.6,6.2z"/>
			<path id="Path_2195" fill="#CCA70D" d="M14.1,2.4V0.6c-2.7-0.7-5.6-0.7-8.3,0v1.9H14.1z"/>
			<path id="Path_2196" fill="#EEC40F" d="M18,6.5c-0.3-2.8-1-3.3-2.6-4.6C13.3,0,6.6,0,4.4,1.8C2.8,3.2,2.2,3.7,1.9,6.5
				c-0.5,4.4,0.3,11.2,0.3,12.9c-0.1,9-0.2,14.4,0.4,16.3c0.7,2.2,7.4,2.1,7.4,2.1s6.7,0.1,7.4-2.1c0.6-1.9,0.5-7.3,0.4-16.3
				C17.7,17.6,18.6,10.8,18,6.5z"/>
			
				<linearGradient id="Path_2197_1_" gradientUnits="userSpaceOnUse" x1="-320.2733" y1="156.4767" x2="-319.2733" y2="156.4767" gradientTransform="matrix(12.149 0 0 -1.5245 3894.895 255.0071)">
				<stop  offset="0" style="stop-color:#000000"/>
				<stop  offset="1" style="stop-color:#1B1C1C"/>
			</linearGradient>
			<path id="Path_2197" fill="url(#Path_2197_1_)" d="M6.7,15.9c-0.9,0.1-1.9,0.4-2.8,0.7L4,17.2c0.9-0.4,1.8-0.7,2.8-0.8
				c2.1-0.2,4.2-0.2,6.3,0c1,0.1,1.9,0.4,2.8,0.8l0.1-0.6c-0.9-0.4-1.8-0.6-2.8-0.7C11.1,15.6,8.9,15.6,6.7,15.9z"/>
			
				<linearGradient id="Path_2198_1_" gradientUnits="userSpaceOnUse" x1="-324.1634" y1="227.1716" x2="-323.1634" y2="227.1716" gradientTransform="matrix(14.0518 0 0 -2.232 4558.0166 517.4203)">
				<stop  offset="0" style="stop-color:#000000"/>
				<stop  offset="1" style="stop-color:#1B1C1C"/>
			</linearGradient>
			<path id="Path_2198" fill="url(#Path_2198_1_)" d="M3.5,11.2c1-0.4,2-0.7,3-1c2.3-0.5,4.7-0.5,7.1,0c1,0.2,2,0.5,3,1
				c0.2,0.1,0.3,0.2,0.4,0.3v0c0,0,0.1-0.5,0-0.6c-0.1-0.1-0.2-0.2-0.5-0.3c-1-0.4-1.9-0.7-3-1c-2.3-0.5-4.7-0.5-7.1,0
				c-1,0.2-2,0.5-3,1c-0.2,0.1-0.4,0.2-0.5,0.3c0,0.2,0,0.4,0,0.6v0C3.1,11.3,3.3,11.3,3.5,11.2z"/>
			
				<linearGradient id="Path_2199_1_" gradientUnits="userSpaceOnUse" x1="-323.8961" y1="328.935" x2="-322.8921" y2="328.935" gradientTransform="matrix(13.9 0 0 -6.724 4505.146 2225.0012)">
				<stop  offset="0" style="stop-color:#363B39"/>
				<stop  offset="1" style="stop-color:#1B1C1C"/>
			</linearGradient>
			<path id="Path_2199" fill="url(#Path_2199_1_)" d="M6.7,15.9c2.2-0.2,4.4-0.2,6.6,0c1,0.1,1.9,0.4,2.8,0.7l0.9-5.1
				c-0.1-0.1-0.3-0.2-0.5-0.3c-1-0.4-2-0.7-3-1c-2.3-0.5-4.7-0.5-7.1,0c-1,0.2-2,0.5-3,1c-0.2,0.1-0.3,0.2-0.5,0.3l0.9,5.1
				C4.8,16.2,5.7,16,6.7,15.9z"/>
			
				<linearGradient id="Path_2200_1_" gradientUnits="userSpaceOnUse" x1="-98.5954" y1="355.1395" x2="-97.6094" y2="355.1395" gradientTransform="matrix(1.3938 0 0 -13.957 139.8727 4974.9468)">
				<stop  offset="0" style="stop-color:#363B39"/>
				<stop  offset="1" style="stop-color:#1B1C1C"/>
			</linearGradient>
			<path id="Path_2200" fill="url(#Path_2200_1_)" d="M2.7,24.8l1.2,0.5l-0.2-6.4l-1.2-7.6c0,0-0.1,1.9,0,4.7
				c0.1,1.8,0.3,4.2,0.3,5.7C2.7,23.2,2.7,24.2,2.7,24.8z"/>
			
				<linearGradient id="Path_2201_1_" gradientUnits="userSpaceOnUse" x1="-93.4639" y1="355.1395" x2="-92.4569" y2="355.1395" gradientTransform="matrix(1.3658 0 0 -13.957 143.7554 4974.9468)">
				<stop  offset="0" style="stop-color:#363B39"/>
				<stop  offset="1" style="stop-color:#1B1C1C"/>
			</linearGradient>
			<path id="Path_2201" fill="url(#Path_2201_1_)" d="M17.3,24.8l-1.2,0.5l0.2-6.4l1.1-7.6c0,0,0.1,1.9,0,4.7
				c-0.1,1.8-0.2,4.2-0.2,5.7C17.2,23.2,17.2,24.3,17.3,24.8z"/>
			
				<linearGradient id="Path_2202_1_" gradientUnits="userSpaceOnUse" x1="-103.0014" y1="343.0311" x2="-101.9994" y2="343.0311" gradientTransform="matrix(1.4187 0 0 -9.323 148.675 3228.0969)">
				<stop  offset="0" style="stop-color:#363B39"/>
				<stop  offset="1" style="stop-color:#1B1C1C"/>
			</linearGradient>
			<path id="Path_2202" fill="url(#Path_2202_1_)" d="M2.6,25.4L3.8,26L4,31.3c-0.1,0.6-0.3,1.2-0.6,1.8c-0.2,0.6-0.5,1.1-0.8,1.6
				C2.6,34.7,2.5,27.3,2.6,25.4z"/>
			
				<linearGradient id="Path_2203_1_" gradientUnits="userSpaceOnUse" x1="-103.2233" y1="342.9409" x2="-102.2213" y2="342.9409" gradientTransform="matrix(1.42 0 0 -9.3 162.538 3219.3291)">
				<stop  offset="0" style="stop-color:#363B39"/>
				<stop  offset="1" style="stop-color:#1B1C1C"/>
			</linearGradient>
			<path id="Path_2203" fill="url(#Path_2203_1_)" d="M17.3,25.3L16.1,26L16,31.3c0.1,0.6,0.3,1.2,0.6,1.8c0.2,0.6,0.5,1.1,0.8,1.6
				C17.3,34.6,17.5,27.3,17.3,25.3z"/>
			<path id="Path_2204" fill="#D60D26" d="M5.1,37.7c-0.8,0.1-1.2-0.3-1.9-0.3c-0.1,0-0.2,0-0.3,0.1c0.9,0.5,1.9,0.8,3,0.9
				C5.8,38.1,5.6,37.6,5.1,37.7z"/>
			<path id="Path_2205" fill="#D60D26" d="M14.5,37.7c-0.6-0.1-0.7,0.4-0.8,0.7c1.1-0.1,2.1-0.4,3.1-0.9c-0.1-0.1-0.3-0.2-0.5-0.2
				C15.6,37.4,15.3,37.8,14.5,37.7z"/>
			<path id="Path_2206" fill="#CCA70D" d="M4.3,9.3C4.9,8.2,5.4,7,5.9,5.9c0.1-1,0-1.9-0.1-2.9c0,0-0.1,2.1-0.3,2.8
				C5.3,6.6,4.3,9.3,4.3,9.3z"/>
			<path id="Path_2207" fill="#CCA70D" d="M15.6,9.3C15,8.2,14.5,7,14,5.9C14,4.9,14,3.9,14.1,3c0,0,0.1,2.1,0.3,2.8
				C14.6,6.6,15.6,9.3,15.6,9.3z"/>
			
				<linearGradient id="Path_2208_1_" gradientUnits="userSpaceOnUse" x1="-310.4189" y1="328.2968" x2="-309.9899" y2="327.8768" gradientTransform="matrix(9.1 0 0 -6.612 2834.7502 2182.5469)">
				<stop  offset="0" style="stop-color:#363B39"/>
				<stop  offset="1" style="stop-color:#000000"/>
			</linearGradient>
			<path id="Path_2208" fill="url(#Path_2208_1_)" d="M16.5,11.2c-1-0.4-2-0.7-3-1C13,10.1,12.4,10,11.8,10c-1.5,1.8-2.8,3.7-4,5.8
				c1.8-0.1,3.6-0.1,5.4,0.1c0.9,0.1,1.9,0.4,2.8,0.7l0.9-5.1C16.8,11.3,16.6,11.2,16.5,11.2z"/>
			<path id="Path_2209" fill="#EEC40F" d="M10,16.5c-4.3-0.1-5.8,1-5.8,1s0.1,16.2,0.4,17.2c0.2,0.7,3,0.5,4.7,0.6h1.4
				c1.7-0.1,4.5,0.1,4.7-0.6c0.3-1,0.4-17.2,0.4-17.2S14.3,16.3,10,16.5z"/>
			<path id="Path_2210" fill="#CCA70D" d="M5.1,1.6C3.6,2.5,2.5,4.1,2.3,5.9C2.1,7.4,2,8.9,2,10.4C2,10.4,2.9,3.2,5.1,1.6z"/>
			<path id="Path_2211" fill="#CCA70D" d="M14.8,1.6c1.6,0.9,2.6,2.4,2.9,4.2c0.2,1.5,0.2,3,0.3,4.5C17.9,10.4,17,3.2,14.8,1.6z"/>
			
				<linearGradient id="Path_2212_1_" gradientUnits="userSpaceOnUse" x1="133.3087" y1="206.3839" x2="135.3817" y2="204.9019" gradientTransform="matrix(0.7234 0 0 -1.9596 -79.1961 416.3477)">
				<stop  offset="0" style="stop-color:#363B39"/>
				<stop  offset="1" style="stop-color:#1B1C1C"/>
			</linearGradient>
			<path id="Path_2212" fill="url(#Path_2212_1_)" d="M17.4,11.7c0,0,0.7,0.1,0.7,0.7c0,0.6-0.7,1.8-0.7,1
				C17.3,12.8,17.3,12.3,17.4,11.7z"/>
			<path id="Path_2213" fill="#CCA70D" d="M19.9,13c0-0.4-1.8-0.8-1.8-0.7c-0.2,0-0.4,0.1-0.4,0.3c0,0,0,0.1,0,0.1
				c0.8-0.1,1.5,0.1,2.1,0.6C19.9,13.2,19.9,13.1,19.9,13z"/>
			
				<linearGradient id="Path_2214_1_" gradientUnits="userSpaceOnUse" x1="-192.639" y1="-104.8007" x2="-191.627" y2="-104.8007" gradientTransform="matrix(2.232 0 0 -0.702 447.565 -60.5436)">
				<stop  offset="0" style="stop-color:#363B39"/>
				<stop  offset="1" style="stop-color:#1B1C1C"/>
			</linearGradient>
			<path id="Path_2214" fill="url(#Path_2214_1_)" d="M17.6,12.7c0,0.1,0.1,0.2,0.1,0.3c0.7-0.1,1.5,0,2.1,0.4c0,0,0.1-0.1,0.1-0.1
				C19.2,12.8,18.4,12.6,17.6,12.7z"/>
			
				<linearGradient id="Path_2215_1_" gradientUnits="userSpaceOnUse" x1="336.4621" y1="75.586" x2="338.5931" y2="74.104" gradientTransform="matrix(0.702 0 0 -1.9596 -102.1913 416.3477)">
				<stop  offset="0" style="stop-color:#363B39"/>
				<stop  offset="1" style="stop-color:#1B1C1C"/>
			</linearGradient>
			<path id="Path_2215" fill="url(#Path_2215_1_)" d="M2.5,11.7c0,0-0.7,0.1-0.7,0.7c0,0.6,0.7,1.8,0.7,1
				C2.5,12.8,2.5,12.3,2.5,11.7z"/>
			<path id="Path_2216" fill="#CCA70D" d="M0,13c0-0.4,1.8-0.8,1.8-0.7c0.2,0,0.4,0.1,0.4,0.3c0,0,0,0.1,0,0.1
				c-0.8-0.1-1.5,0.1-2.2,0.6C0,13.2,0,13.1,0,13z"/>
			
				<linearGradient id="Path_2217_1_" gradientUnits="userSpaceOnUse" x1="-103.585" y1="-104.8007" x2="-102.573" y2="-104.8007" gradientTransform="matrix(2.232 0 0 -0.702 429.991 -60.5436)">
				<stop  offset="0" style="stop-color:#363B39"/>
				<stop  offset="1" style="stop-color:#1B1C1C"/>
			</linearGradient>
			<path id="Path_2217" fill="url(#Path_2217_1_)" d="M2.3,12.7c0,0.1-0.1,0.2-0.1,0.3c-0.7-0.1-1.5,0-2.1,0.4c0,0-0.1-0.1-0.1-0.1
				C0.7,12.8,1.5,12.6,2.3,12.7z"/>
			<path id="Path_2218" fill="#595959" d="M1.7,19.3c-0.1,0-0.2,0.1-0.2,0.2c0,0,0,0,0,0V21c0,0.1,0.1,0.2,0.2,0.2c0,0,0,0,0,0V19.3
				z"/>
			<path id="Path_2219" fill="#595959" d="M1.6,26.7c-0.1,0-0.2,0.1-0.2,0.2c0,0,0,0,0,0v1.5c0,0.1,0.1,0.2,0.2,0.2c0,0,0,0,0,0
				V26.7z"/>
			<path id="Path_2220" fill="#595959" d="M18.2,19.3c0.1,0,0.2,0.1,0.2,0.2c0,0,0,0,0,0V21c0,0.1-0.1,0.2-0.2,0.2c0,0,0,0,0,0V19.3
				z"/>
			<path id="Path_2221" fill="#595959" d="M18.3,26.7c0.1,0,0.2,0.1,0.2,0.2c0,0,0,0,0,0v1.5c0,0.1-0.1,0.2-0.2,0.2c0,0,0,0,0,0
				V26.7z"/>
			<g id="Group_1412" transform="translate(5.985 8.422)">
				<g id="Group_1411" transform="translate(0 0)">
					<path id="Path_2222" fill="#CCA70D" d="M0.1,0.3c0.3,0,0.4-0.2,0.7-0.2c0,0,0.1,0,0.1-0.1c0,0,0-0.1-0.1,0
						C0.5,0,0.3,0.2,0.1,0.3C0,0.2,0,0.2,0.1,0.3C0,0.3,0,0.3,0.1,0.3z"/>
					<path id="Path_2223" fill="#CCA70D" d="M0.8,0.2c-0.3,0-0.5,0.2-0.7,0.2c0,0-0.1,0-0.1,0.1c0,0,0,0.1,0.1,0
						C0.3,0.4,0.5,0.2,0.8,0.2C0.8,0.2,0.8,0.2,0.8,0.2C0.8,0.2,0.8,0.2,0.8,0.2z"/>
					<path id="Path_2224" fill="#CCA70D" d="M0.8,0.3c-0.3,0-0.4,0.2-0.7,0.2c0,0-0.1,0-0.1,0.1c0,0,0,0.1,0.1,0
						c0.3,0,0.4-0.2,0.7-0.2C0.8,0.4,0.8,0.4,0.8,0.3C0.8,0.3,0.8,0.3,0.8,0.3z"/>
				</g>
			</g>
			<g id="Group_1414" transform="translate(13.105 8.422)">
				<g id="Group_1413" transform="translate(0 0)">
					<path id="Path_2225" fill="#CCA70D" d="M0.8,0.3C0.5,0.3,0.3,0.1,0,0.1c0,0,0,0,0-0.1S0,0,0,0C0.3,0,0.5,0.2,0.8,0.3
						C0.8,0.2,0.8,0.2,0.8,0.3C0.8,0.3,0.8,0.3,0.8,0.3z"/>
					<path id="Path_2226" fill="#CCA70D" d="M0.1,0.2c0.3,0,0.4,0.2,0.7,0.2c0,0,0.1,0,0.1,0.1c0,0,0,0.1-0.1,0
						C0.5,0.4,0.4,0.2,0.1,0.2C0,0.2,0,0.2,0.1,0.2C0,0.2,0,0.2,0.1,0.2z"/>
					<path id="Path_2227" fill="#CCA70D" d="M0.1,0.3c0.3,0,0.4,0.2,0.7,0.2c0,0,0.1,0,0.1,0.1c0,0,0,0.1-0.1,0
						C0.5,0.6,0.4,0.4,0.1,0.3C0,0.4,0,0.4,0.1,0.3C0,0.3,0,0.3,0.1,0.3z"/>
				</g>
			</g>
			
				<linearGradient id="Path_2228_1_" gradientUnits="userSpaceOnUse" x1="-283.6422" y1="-814.2904" x2="-282.6422" y2="-814.2904" gradientTransform="matrix(5.34 0 0 -0.2848 1521.9441 -193.3915)">
				<stop  offset="0" style="stop-color:#363B39"/>
				<stop  offset="1" style="stop-color:#000000"/>
			</linearGradient>
			<path id="Path_2228" fill="url(#Path_2228_1_)" d="M12.3,38.4H7.6c-0.1,0-0.3,0.1-0.3,0.2c0.9,0.1,1.8,0.1,2.7,0.1
				c0.9,0,1.8,0,2.7-0.1C12.6,38.4,12.4,38.4,12.3,38.4z"/>
			
				<linearGradient id="Path_2229_1_" gradientUnits="userSpaceOnUse" x1="-236.26" y1="260.7152" x2="-236.094" y2="259.8922" gradientTransform="matrix(3.108 0 0 -2.854 750.096 745.156)">
				<stop  offset="0" style="stop-color:#FFFFFF"/>
				<stop  offset="1" style="stop-color:#BEBEBE"/>
			</linearGradient>
			<path id="Path_2229" fill="url(#Path_2229_1_)" d="M15.5,1.9c0.6,0.5,1.2,1,1.7,1.6c0.1-0.1,0.2-0.5,0.3-0.6
				c-0.5-0.6-1.1-1.1-1.7-1.5c-0.4-0.3-0.9-0.6-1.4-0.8c0,0.2,0.1,0.5,0.2,0.7C14.9,1.5,15.2,1.6,15.5,1.9z"/>
			
				<linearGradient id="Path_2230_1_" gradientUnits="userSpaceOnUse" x1="-235.2382" y1="260.7154" x2="-235.0722" y2="259.8924" gradientTransform="matrix(3.08 0 0 -2.854 728.373 745.156)">
				<stop  offset="0" style="stop-color:#FFFFFF"/>
				<stop  offset="1" style="stop-color:#BEBEBE"/>
			</linearGradient>
			<path id="Path_2230" fill="url(#Path_2230_1_)" d="M4.5,1.9c-0.6,0.5-1.2,1-1.7,1.6C2.7,3.3,2.6,3,2.5,2.9c0.5-0.6,1-1.1,1.6-1.5
				C4.5,1.1,5,0.8,5.5,0.6c0,0.2-0.1,0.5-0.2,0.7C5,1.4,4.7,1.6,4.5,1.9z"/>
			
				<linearGradient id="Path_2231_1_" gradientUnits="userSpaceOnUse" x1="-89.4715" y1="322.7387" x2="-88.4715" y2="322.7387" gradientTransform="matrix(1.3447 0 0 -5.99 122.8656 1961.5569)">
				<stop  offset="0" style="stop-color:#363B39"/>
				<stop  offset="1" style="stop-color:#000000"/>
			</linearGradient>
			<path id="Path_2231" fill="url(#Path_2231_1_)" d="M3.8,26l-1.2-0.6c-0.1,1.1-0.1,3.8-0.1,6c0.7-0.9,1.1-1.9,1.3-3.1L3.8,26z"/>
			
				<linearGradient id="Path_2232_1_" gradientUnits="userSpaceOnUse" x1="-63.8105" y1="348.0796" x2="-62.8205" y2="348.0796" gradientTransform="matrix(1.2238 0 0 -10.821 80.5427 3783.2671)">
				<stop  offset="0" style="stop-color:#363B39"/>
				<stop  offset="1" style="stop-color:#000000"/>
			</linearGradient>
			<path id="Path_2232" fill="url(#Path_2232_1_)" d="M2.7,22.1c0.4-0.6,0.7-1.3,0.9-1.9l0-1.3l-1.2-7.6c0,0-0.1,1.9,0,4.7
				c0.1,1.8,0.3,4.2,0.3,5.7V22.1z"/>
			
				<linearGradient id="Path_2233_1_" gradientUnits="userSpaceOnUse" x1="37.7761" y1="322.7387" x2="38.7851" y2="322.7387" gradientTransform="matrix(1.3324 0 0 -5.99 132.0844 1961.5289)">
				<stop  offset="0" style="stop-color:#363B39"/>
				<stop  offset="1" style="stop-color:#000000"/>
			</linearGradient>
			<path id="Path_2233" fill="url(#Path_2233_1_)" d="M16.1,26l1.2-0.6c0.1,1.1,0.1,3.8,0.1,6c-0.7-0.9-1.1-1.9-1.3-3.1L16.1,26z"/>
			
				<linearGradient id="Path_2234_1_" gradientUnits="userSpaceOnUse" x1="81.6702" y1="347.9981" x2="82.6843" y2="347.9981" gradientTransform="matrix(1.1958 0 0 -10.793 84.6234 3772.6272)">
				<stop  offset="0" style="stop-color:#363B39"/>
				<stop  offset="1" style="stop-color:#000000"/>
			</linearGradient>
			<path id="Path_2234" fill="url(#Path_2234_1_)" d="M17.2,22.1c-0.4-0.6-0.7-1.3-0.9-1.9l0-1.3l1.1-7.6c0,0,0.1,1.9,0,4.7
				c-0.1,1.8-0.2,4.2-0.2,5.7V22.1z"/>
			<rect id="Rectangle_605" x="7.8" y="5.3" fill="#CCA70D" width="3.8" height="0.2"/>
			<rect id="Rectangle_606" x="7.8" y="5.7" fill="#CCA70D" width="3.8" height="0.2"/>
			<rect id="Rectangle_607" x="7.8" y="6.1" fill="#CCA70D" width="3.8" height="0.2"/>
			<rect id="Rectangle_608" x="7.8" y="6.5" fill="#CCA70D" width="3.8" height="0.2"/>
			<g id="Group_1415" transform="translate(3.977 34.398)">
				
					<linearGradient id="Path_2235_1_" gradientUnits="userSpaceOnUse" x1="-323.7152" y1="247.1556" x2="-322.7152" y2="247.1556" gradientTransform="matrix(11.9268 0 0 -3.4713 3860.8928 859.6831)">
					<stop  offset="0" style="stop-color:#363B39"/>
					<stop  offset="1" style="stop-color:#1B1C1C"/>
				</linearGradient>
				<path id="Path_2235" fill="url(#Path_2235_1_)" d="M0.6,0C0.3,0.7,0.1,1.5,0,2.3c-0.1,0.3,1.2,0.5,2.9,0.9c2,0.3,4.1,0.3,6.1,0
					c1.8-0.4,2.9-0.6,2.9-1c0-0.8-0.2-1.5-0.5-2.3C9.6,0.6,7.8,0.9,6,0.9C4.1,0.9,2.3,0.6,0.6,0z"/>
				
					<linearGradient id="Path_2236_1_" gradientUnits="userSpaceOnUse" x1="-319.9568" y1="248.3856" x2="-319.7168" y2="247.2516" gradientTransform="matrix(10.652 0 0 -3.4753 3412.2971 861.0655)">
					<stop  offset="0" style="stop-color:#5E5E5E"/>
					<stop  offset="1" style="stop-color:#000000"/>
				</linearGradient>
				<path id="Path_2236" fill="url(#Path_2236_1_)" d="M11.5,0C9.8,0.6,7.9,0.9,6.1,0.9c-0.5,0-1.1,0-1.6-0.1
					C3.3,1.2,2.2,1.9,1.4,2.9C1.8,3,2.4,3.1,3,3.2c2,0.3,4.1,0.3,6.1,0c1-0.2,2-0.5,2.9-1C12,1.5,11.8,0.7,11.5,0z"/>
			</g>
		</g>
	</g>
</g>
</g>

</svg>
