<svg xmlns="http://www.w3.org/2000/svg" xmlns:xlink="http://www.w3.org/1999/xlink" width="50" height="50" viewBox="-10 -10 50 50">

  <defs>
    <linearGradient id="linear-gradient" y1="0.496" x2="1" y2="0.496" gradientUnits="objectBoundingBox">
      <stop offset="0"/>
      <stop offset="1" stop-color="#1b1c1c"/>
    </linearGradient>
    <linearGradient id="linear-gradient-2" x1="0.001" y1="0.495" x2="1.002" y2="0.495" xlink:href="#linear-gradient"/>
    <linearGradient id="linear-gradient-3" x1="-0.004" y1="0.501" x2="1" y2="0.501" gradientUnits="objectBoundingBox">
      <stop offset="0" stop-color="#363b39"/>
      <stop offset="1" stop-color="#1b1c1c"/>
    </linearGradient>
    <linearGradient id="linear-gradient-4" x1="0.006" y1="0.5" x2="0.992" y2="0.5" xlink:href="#linear-gradient-3"/>
    <linearGradient id="linear-gradient-5" x1="0.004" y1="0.5" x2="1.011" y2="0.5" xlink:href="#linear-gradient-3"/>
    <linearGradient id="linear-gradient-6" x1="-0.007" y1="0.498" x2="0.995" y2="0.498" xlink:href="#linear-gradient-3"/>
    <linearGradient id="linear-gradient-7" x1="0.002" y1="0.502" x2="1.004" y2="0.502" xlink:href="#linear-gradient-3"/>
    <linearGradient id="linear-gradient-8" x1="0.23" y1="0.281" x2="0.659" y2="0.701" gradientUnits="objectBoundingBox">
      <stop offset="0" stop-color="#363b39"/>
      <stop offset="1"/>
    </linearGradient>
    <linearGradient id="linear-gradient-9" x1="-0.17" y1="0.118" x2="1.903" y2="1.6" xlink:href="#linear-gradient-3"/>
    <linearGradient id="linear-gradient-10" x1="-0.001" y1="0.511" x2="1.011" y2="0.511" xlink:href="#linear-gradient-3"/>
    <linearGradient id="linear-gradient-11" x1="279.289" y1="0.118" x2="281.42" y2="1.6" xlink:href="#linear-gradient-3"/>
    <linearGradient id="linear-gradient-12" x1="89.053" y1="0.511" x2="90.065" y2="0.511" xlink:href="#linear-gradient-3"/>
    <linearGradient id="linear-gradient-13" x1="0.002" y1="0.469" x2="1.001" y2="0.469" xlink:href="#linear-gradient-8"/>
    <linearGradient id="linear-gradient-14" x1="0.334" y1="0.177" x2="0.5" y2="1" gradientUnits="objectBoundingBox">
      <stop offset="0" stop-color="#fff"/>
      <stop offset="1" stop-color="#bebebe"/>
    </linearGradient>
    <linearGradient id="linear-gradient-16" x1="0" y1="0.499" x2="1" y2="0.499" xlink:href="#linear-gradient-8"/>
    <linearGradient id="linear-gradient-17" x1="0.007" y1="0.499" x2="0.997" y2="0.499" xlink:href="#linear-gradient-8"/>
    <linearGradient id="linear-gradient-18" x1="124.846" y1="0.502" x2="125.855" y2="0.502" xlink:href="#linear-gradient-8"/>
    <linearGradient id="linear-gradient-19" x1="138.81" y1="0.5" x2="139.824" y2="0.5" xlink:href="#linear-gradient-8"/>
    <linearGradient id="linear-gradient-20" x1="0" y1="0.505" x2="1.001" y2="0.505" xlink:href="#linear-gradient-3"/>
    <linearGradient id="linear-gradient-21" x1="0.255" y1="-0.617" x2="0.495" y2="0.517" gradientUnits="objectBoundingBox">
      <stop offset="0" stop-color="#5e5e5e"/>
      <stop offset="1"/>
    </linearGradient>
  </defs>
  
   <g id="rotating-group" transform="rotate(angle, 9.934, 19.333)">
  <g id="Group_10767" data-name="Group 10767" transform="matrix(1, 0, 0, 1, 0, 0)">
    <g id="Group_1418" data-name="Group 1418" transform="translate(0 0)">
      <g id="Group_1417" data-name="Group 1417">
        <path id="Path_2194" data-name="Path 2194" d="M17.394,5.651A6.084,6.084,0,0,0,16.32,2.345a.927.927,0,0,1-.706-.141L13.579.735a1.017,1.017,0,0,1-.367-.65c-.085-.028-.2-.057-.283-.085V1.865H4.623V0c-.113.028-.2.057-.283.085a1.057,1.057,0,0,1-.4.65L1.911,2.2a.882.882,0,0,1-.706.141A6.359,6.359,0,0,0,.159,5.651C-.349,10.171.526,17.263.5,19.014c-.113,9.324-.2,15,.424,16.952a1.838,1.838,0,0,0,.819.932,1.016,1.016,0,0,1,.311-.057c.735,0,1.074.48,1.865.339.537-.085.706.339.763.65A13.168,13.168,0,0,0,6.064,38a.4.4,0,0,1,.339-.17h4.69a.4.4,0,0,1,.339.17c.339-.028.678-.057,1.045-.113.057-.311.226-.791.763-.706.791.141,1.158-.339,1.865-.339a.749.749,0,0,1,.48.17A2.016,2.016,0,0,0,16.6,35.966c.622-1.978.537-7.628.424-16.952C17.026,17.263,17.9,10.171,17.394,5.651Z" transform="translate(1.192 0.551)" fill="#c20a14"/>
        <path id="Path_2195" data-name="Path 2195" d="M8.306,2.416V.551A15.93,15.93,0,0,0,0,.551V2.416Z" transform="translate(5.815)" fill="#cf000f"/>
        <path id="Path_2196" data-name="Path 2196" d="M16.324,5.99c-.311-2.825-.961-3.306-2.571-4.634-2.147-1.808-8.9-1.808-11.047,0C1.123,2.684.474,3.164.163,5.99-.346,10.341.5,17.15.474,18.845c-.113,8.984-.17,14.437.4,16.33.678,2.175,7.374,2.062,7.374,2.062s6.7.113,7.374-2.062c.593-1.893.509-7.346.4-16.33C15.985,17.15,16.832,10.341,16.324,5.99Z" transform="translate(1.725 0.494)" fill="#cf000f"/>
        <path id="Path_2197" data-name="Path 2197" d="M2.769.17A11.938,11.938,0,0,0,0,.9l.113.622A9.916,9.916,0,0,1,2.91.706a29.619,29.619,0,0,1,6.329,0,9.521,9.521,0,0,1,2.8.819L12.149.9A10.976,10.976,0,0,0,9.38.17,32.315,32.315,0,0,0,2.769.17Z" transform="translate(3.894 15.695)" fill="url(#linear-gradient)"/>
        <path id="Path_2198" data-name="Path 2198" d="M.556,1.949A17.186,17.186,0,0,1,3.523.989a18.564,18.564,0,0,1,7.063,0,13.274,13.274,0,0,1,2.967.961A1.38,1.38,0,0,1,14,2.232V2.2s.113-.452.028-.565c-.057-.113-.226-.2-.509-.339A17.186,17.186,0,0,0,10.558.339a18.563,18.563,0,0,0-7.063,0A13.274,13.274,0,0,0,.528,1.3a.966.966,0,0,0-.509.339A1.694,1.694,0,0,0,.048,2.2v.028A1.2,1.2,0,0,1,.556,1.949Z" transform="translate(2.914 9.253)" fill="url(#linear-gradient-2)"/>
        <path id="Path_2199" data-name="Path 2199" d="M3.616,5.99a32.314,32.314,0,0,1,6.611,0A11.938,11.938,0,0,1,13,6.724l.9-5.142a1.8,1.8,0,0,0-.452-.283A17.187,17.187,0,0,0,10.482.339a18.563,18.563,0,0,0-7.063,0A13.274,13.274,0,0,0,.452,1.3,1.38,1.38,0,0,0,0,1.582L.9,6.724A9.326,9.326,0,0,1,3.616,5.99Z" transform="translate(3.046 9.874)" fill="url(#linear-gradient-3)"/>
        <path id="Path_2200" data-name="Path 2200" d="M.207,13.477l1.187.48L1.2,7.572.038,0s-.085,1.949,0,4.718C.122,6.47.292,8.9.292,10.454.292,11.951.235,12.94.207,13.477Z" transform="translate(2.444 11.287)" fill="url(#linear-gradient-4)"/>
        <path id="Path_2201" data-name="Path 2201" d="M1.187,13.477,0,13.957.2,7.572,1.328,0s.085,1.949,0,4.718C1.271,6.47,1.1,8.9,1.1,10.454,1.1,11.951,1.13,12.968,1.187,13.477Z" transform="translate(16.099 11.287)" fill="url(#linear-gradient-5)"/>
        <path id="Path_2202" data-name="Path 2202" d="M.063,0,1.278.622l.141,5.34A9.434,9.434,0,0,1,.854,7.713a8.068,8.068,0,0,1-.791,1.61S-.078,1.978.063,0Z" transform="translate(2.56 25.357)" fill="url(#linear-gradient-6)"/>
        <path id="Path_2203" data-name="Path 2203" d="M1.356,0,.141.622,0,5.961A9.435,9.435,0,0,0,.565,7.713,7.028,7.028,0,0,0,1.356,9.3S1.5,2.006,1.356,0Z" transform="translate(15.958 25.329)" fill="url(#linear-gradient-7)"/>
        <path id="Path_2204" data-name="Path 2204" d="M2.175.339C1.384.48,1.017,0,.311,0A.872.872,0,0,0,0,.057,8.946,8.946,0,0,0,2.967.989C2.882.678,2.684.226,2.175.339Z" transform="translate(2.962 37.393)" fill="#d60d26"/>
        <path id="Path_2205" data-name="Path 2205" d="M.763.339C.2.254.028.735,0,1.045A9.764,9.764,0,0,0,3.136.17.621.621,0,0,0,2.656,0C1.893,0,1.554.452.763.339Z" transform="translate(13.698 37.393)" fill="#d60d26"/>
        <path id="Path_2206" data-name="Path 2206" d="M0,6.329A22.1,22.1,0,0,0,1.554,2.91,16.926,16.926,0,0,0,1.469,0s-.141,2.091-.283,2.769C.989,3.673,0,6.329,0,6.329Z" transform="translate(4.346 2.924)" fill="#8e000a"/>
        <path id="Path_2207" data-name="Path 2207" d="M1.617,6.329A22.1,22.1,0,0,1,.063,2.91,14.946,14.946,0,0,1,.12,0S.261,2.091.4,2.769C.628,3.673,1.617,6.329,1.617,6.329Z" transform="translate(14.002 2.924)" fill="#8e000a"/>
        <path id="Path_2208" data-name="Path 2208" d="M8.617,1.215A17.187,17.187,0,0,0,5.651.254,13.806,13.806,0,0,0,3.984,0,38.918,38.918,0,0,0,0,5.764a33.024,33.024,0,0,1,5.4.113,11.938,11.938,0,0,1,2.769.735L9.1,1.469A1.2,1.2,0,0,0,8.617,1.215Z" transform="translate(7.85 9.987)" fill="url(#linear-gradient-8)"/>
        <path id="Path_2209" data-name="Path 2209" d="M5.792.008C1.469-.105,0,1.053,0,1.053S.057,17.214.4,18.259c.226.706,2.967.452,4.69.565H6.526c1.723-.141,4.464.141,4.69-.565.339-1.045.4-17.206.4-17.206S10.115-.105,5.792.008Z" transform="translate(4.177 16.45)" fill="#cf000f"/>
        <path id="Path_2210" data-name="Path 2210" d="M3.137,0A5.707,5.707,0,0,0,.255,4.238,44.828,44.828,0,0,0,0,8.73S.9,1.582,3.137,0Z" transform="translate(2 1.625)" fill="#8e000a"/>
        <path id="Path_2211" data-name="Path 2211" d="M0,0A5.707,5.707,0,0,1,2.882,4.238,44.828,44.828,0,0,1,3.136,8.73S2.232,1.582,0,0Z" transform="translate(14.8 1.625)" fill="#8e000a"/>
        <path id="Path_2212" data-name="Path 2212" d="M.045,0S.723.141.723.706C.751,1.3.045,2.458.045,1.723A8.354,8.354,0,0,1,.045,0Z" transform="translate(17.354 11.683)" fill="url(#linear-gradient-9)"/>
        <path id="Path_2213" data-name="Path 2213" d="M2.21.732C2.21.364.43-.116.4.025a.378.378,0,0,0-.4.48,3.053,3.053,0,0,1,2.147.565A.486.486,0,0,0,2.21.732Z" transform="translate(17.647 12.222)" fill="#8e000a"/>
        <path id="Path_2214" data-name="Path 2214" d="M0,.018C.028.159.057.244.057.272A3.067,3.067,0,0,1,2.147.7.2.2,0,0,0,2.232.583,3.281,3.281,0,0,0,0,.018Z" transform="translate(17.597 12.682)" fill="url(#linear-gradient-10)"/>
        <path id="Path_2215" data-name="Path 2215" d="M.679,0S0,.141,0,.706C-.027,1.3.679,2.458.679,1.723A16.675,16.675,0,0,0,.679,0Z" transform="translate(1.803 11.683)" fill="url(#linear-gradient-11)"/>
        <path id="Path_2216" data-name="Path 2216" d="M.023.732C.023.364,1.8-.116,1.832.025a.378.378,0,0,1,.4.48A3.053,3.053,0,0,0,.08,1.071.374.374,0,0,1,.023.732Z" transform="translate(0 12.222)" fill="#8e000a"/>
        <path id="Path_2217" data-name="Path 2217" d="M2.232.018C2.2.159,2.175.244,2.175.272A3.067,3.067,0,0,0,.085.7.2.2,0,0,1,0,.583,3.281,3.281,0,0,1,2.232.018Z" transform="translate(0.023 12.682)" fill="url(#linear-gradient-12)"/>
        <path id="Path_2218" data-name="Path 2218" d="M.17,0A.163.163,0,0,0,0,.17v1.5a.163.163,0,0,0,.17.17Z" transform="translate(1.549 19.283)" fill="#595959"/>
        <path id="Path_2219" data-name="Path 2219" d="M.17,0A.163.163,0,0,0,0,.17v1.5a.163.163,0,0,0,.17.17Z" transform="translate(1.464 26.742)" fill="#595959"/>
        <path id="Path_2220" data-name="Path 2220" d="M0,0A.163.163,0,0,1,.17.17v1.5a.163.163,0,0,1-.17.17Z" transform="translate(18.218 19.283)" fill="#595959"/>
        <path id="Path_2221" data-name="Path 2221" d="M0,0A.163.163,0,0,1,.17.17v1.5a.163.163,0,0,1-.17.17Z" transform="translate(18.303 26.742)" fill="#595959"/>
        <g id="Group_1412" data-name="Group 1412" transform="translate(5.985 8.422)">
          <g id="Group_1411" data-name="Group 1411" transform="translate(0 0)">
            <path id="Path_2222" data-name="Path 2222" d="M.057.294C.339.266.48.1.791.1A.061.061,0,0,0,.848.04C.848.012.819-.017.791.012.509.04.367.209.057.209A.061.061,0,0,0,0,.266C.028.266.028.294.057.294Z" fill="#8e000a"/>
            <path id="Path_2223" data-name="Path 2223" d="M.791,0C.509.028.367.2.057.2A.061.061,0,0,0,0,.254C0,.283.028.311.057.283.339.254.48.085.791.085A.061.061,0,0,0,.848.028C.819.028.819,0,.791,0Z" transform="translate(0 0.153)" fill="#8e000a"/>
            <path id="Path_2224" data-name="Path 2224" d="M.791,0C.509.028.367.2.057.2A.061.061,0,0,0,0,.254C0,.283.028.311.057.283.339.254.48.085.791.085A.061.061,0,0,0,.848.028C.819.028.819,0,.791,0Z" transform="translate(0 0.322)" fill="#8e000a"/>
          </g>
        </g>
        <g id="Group_1414" data-name="Group 1414" transform="translate(13.105 8.422)">
          <g id="Group_1413" data-name="Group 1413" transform="translate(0 0)">
            <path id="Path_2225" data-name="Path 2225" d="M.763.294C.48.266.339.1.028.1,0,.1,0,.068,0,.04S.028-.017.028.012c.283.028.424.2.735.2A.061.061,0,0,1,.819.266.1.1,0,0,1,.763.294Z" fill="#8e000a"/>
            <path id="Path_2226" data-name="Path 2226" d="M.057,0C.339.028.48.2.791.2A.061.061,0,0,1,.848.254C.848.283.819.311.791.283.509.254.367.085.057.085A.061.061,0,0,1,0,.028.1.1,0,0,1,.057,0Z" transform="translate(0 0.153)" fill="#8e000a"/>
            <path id="Path_2227" data-name="Path 2227" d="M.04,0C.322.028.464.2.775.2A.061.061,0,0,1,.831.254C.831.283.8.311.775.283.492.254.351.085.04.085.012.085.012.057.012.028-.017.028.012,0,.04,0Z" transform="translate(0.017 0.322)" fill="#8e000a"/>
          </g>
        </g>
        <path id="Path_2228" data-name="Path 2228" d="M5.029,0H.339A.4.4,0,0,0,0,.17,25.207,25.207,0,0,0,2.684.283,24.6,24.6,0,0,0,5.34.17.354.354,0,0,0,5.029,0Z" transform="translate(7.284 38.382)" fill="url(#linear-gradient-13)"/>
        <path id="Path_2229" data-name="Path 2229" d="M1.1,1.215A8.355,8.355,0,0,1,2.769,2.854c.113-.141.17-.537.339-.565A9.993,9.993,0,0,0,1.441.763,4.912,4.912,0,0,0,0,0,2.532,2.532,0,0,0,.2.678,4.025,4.025,0,0,1,1.1,1.215Z" transform="translate(14.404 0.636)" fill="url(#linear-gradient-14)"/>
        <path id="Path_2230" data-name="Path 2230" d="M2.006,1.215A8.355,8.355,0,0,0,.339,2.854C.226,2.712.17,2.317,0,2.289A8.721,8.721,0,0,1,1.639.763,4.912,4.912,0,0,1,3.08,0a2.532,2.532,0,0,1-.2.678A3.293,3.293,0,0,0,2.006,1.215Z" transform="translate(2.453 0.636)" fill="url(#linear-gradient-14)"/>
        <path id="Path_2231" data-name="Path 2231" d="M1.288.622.073,0C-.011,1.074-.011,3.786.017,5.99A6.958,6.958,0,0,0,1.345,2.938Z" transform="translate(2.549 25.357)" fill="url(#linear-gradient-16)"/>
        <path id="Path_2232" data-name="Path 2232" d="M.292,10.821a8.33,8.33,0,0,0,.932-1.949L1.2,7.6.038,0s-.085,1.949,0,4.718C.122,6.47.292,8.9.292,10.454Z" transform="translate(2.444 11.287)" fill="url(#linear-gradient-17)"/>
        <path id="Path_2233" data-name="Path 2233" d="M.057.622,1.271,0c.085,1.1.057,3.786.057,5.99A6.958,6.958,0,0,1,0,2.938Z" transform="translate(16.071 25.329)" fill="url(#linear-gradient-18)"/>
        <path id="Path_2234" data-name="Path 2234" d="M.932,10.793A7.818,7.818,0,0,1,0,8.843L.028,7.572,1.158,0s.085,1.949,0,4.718C1.1,6.47.932,8.9.932,10.454Z" transform="translate(16.297 11.287)" fill="url(#linear-gradient-19)"/>
        <rect id="Rectangle_605" data-name="Rectangle 605" width="3.786" height="0.17" transform="translate(7.85 5.269)" fill="#8e000a"/>
        <rect id="Rectangle_606" data-name="Rectangle 606" width="3.786" height="0.17" transform="translate(7.85 5.693)" fill="#8e000a"/>
        <rect id="Rectangle_607" data-name="Rectangle 607" width="3.786" height="0.17" transform="translate(7.85 6.117)" fill="#8e000a"/>
        <rect id="Rectangle_608" data-name="Rectangle 608" width="3.786" height="0.17" transform="translate(7.85 6.512)" fill="#8e000a"/>
        <g id="Group_1415" data-name="Group 1415" transform="translate(3.977 34.398)">
          <path id="Path_2235" data-name="Path 2235" d="M.567,0A7.363,7.363,0,0,0,0,2.317c-.057.283,1.158.537,2.91.9a18.605,18.605,0,0,0,6.131,0c1.752-.367,2.938-.593,2.882-.961A6.838,6.838,0,0,0,11.388,0,15.113,15.113,0,0,1,5.963.876,14.344,14.344,0,0,1,.567,0Z" fill="url(#linear-gradient-20)"/>
          <path id="Path_2236" data-name="Path 2236" d="M10.115,0A14.933,14.933,0,0,1,4.69.9,13.717,13.717,0,0,1,3.108.819,6.49,6.49,0,0,0,0,2.882c.424.141,1.017.2,1.639.339a18.605,18.605,0,0,0,6.131,0,13.912,13.912,0,0,0,2.882-.961A6.011,6.011,0,0,0,10.115,0Z" transform="translate(1.386)" fill="url(#linear-gradient-21)"/>
        </g>
      </g>
    </g>
  </g>
  </g>
</svg>